<mxfile host="app.diagrams.net" agent="Mozilla/5.0 (Windows NT 10.0; Win64; x64) AppleWebKit/537.36 (KHTML, like Gecko) Chrome/134.0.0.0 Safari/537.36" version="26.2.4">
  <diagram name="第 1 页" id="Mi5FJn27tM2lNLOmDuyB">
    <mxGraphModel dx="1044" dy="562" grid="1" gridSize="10" guides="1" tooltips="1" connect="1" arrows="1" fold="1" page="1" pageScale="1" pageWidth="827" pageHeight="1169" math="0" shadow="0">
      <root>
        <mxCell id="0" />
        <mxCell id="1" parent="0" />
        <mxCell id="xkGVcfHma229tYRSmBUg-1" value="&lt;font style=&quot;font-size: 18px;&quot;&gt;修改操作票&lt;/font&gt;" style="swimlane;html=1;childLayout=stackLayout;startSize=20;rounded=0;shadow=0;labelBackgroundColor=none;strokeWidth=1;fontFamily=Verdana;fontSize=8;align=center;" vertex="1" parent="1">
          <mxGeometry x="70" y="40" width="640" height="1080" as="geometry" />
        </mxCell>
        <mxCell id="xkGVcfHma229tYRSmBUg-2" value="接收请求" style="swimlane;html=1;startSize=20;" vertex="1" parent="xkGVcfHma229tYRSmBUg-1">
          <mxGeometry y="20" width="160" height="1060" as="geometry">
            <mxRectangle y="20" width="40" height="730" as="alternateBounds" />
          </mxGeometry>
        </mxCell>
        <mxCell id="xkGVcfHma229tYRSmBUg-3" style="edgeStyle=orthogonalEdgeStyle;rounded=0;orthogonalLoop=1;jettySize=auto;html=1;exitX=0.5;exitY=1;exitDx=0;exitDy=0;entryX=0.5;entryY=0;entryDx=0;entryDy=0;" edge="1" parent="xkGVcfHma229tYRSmBUg-2" source="xkGVcfHma229tYRSmBUg-4" target="xkGVcfHma229tYRSmBUg-10">
          <mxGeometry relative="1" as="geometry">
            <mxPoint x="70" y="167.5" as="targetPoint" />
          </mxGeometry>
        </mxCell>
        <mxCell id="xkGVcfHma229tYRSmBUg-4" value="&lt;font style=&quot;font-size: 12px;&quot;&gt;开始&lt;/font&gt;" style="rounded=1;whiteSpace=wrap;html=1;shadow=0;labelBackgroundColor=none;strokeWidth=1;fontFamily=Verdana;fontSize=8;align=center;" vertex="1" parent="xkGVcfHma229tYRSmBUg-2">
          <mxGeometry x="30" y="70" width="100" height="60" as="geometry" />
        </mxCell>
        <mxCell id="xkGVcfHma229tYRSmBUg-6" style="edgeStyle=orthogonalEdgeStyle;rounded=0;orthogonalLoop=1;jettySize=auto;html=1;entryX=0.5;entryY=0;entryDx=0;entryDy=0;exitX=0.5;exitY=1;exitDx=0;exitDy=0;" edge="1" parent="xkGVcfHma229tYRSmBUg-2" source="xkGVcfHma229tYRSmBUg-122" target="xkGVcfHma229tYRSmBUg-8">
          <mxGeometry relative="1" as="geometry">
            <mxPoint x="70" y="980" as="targetPoint" />
            <mxPoint x="70" y="440" as="sourcePoint" />
            <Array as="points">
              <mxPoint x="80" y="660" />
              <mxPoint x="80" y="660" />
            </Array>
          </mxGeometry>
        </mxCell>
        <mxCell id="xkGVcfHma229tYRSmBUg-7" value="是" style="edgeLabel;html=1;align=center;verticalAlign=middle;resizable=0;points=[];" vertex="1" connectable="0" parent="xkGVcfHma229tYRSmBUg-6">
          <mxGeometry x="-0.24" y="-1" relative="1" as="geometry">
            <mxPoint as="offset" />
          </mxGeometry>
        </mxCell>
        <mxCell id="xkGVcfHma229tYRSmBUg-8" value="&lt;span style=&quot;font-size: 12px;&quot;&gt;失败返回&lt;/span&gt;" style="whiteSpace=wrap;html=1;fontSize=8;fontFamily=Verdana;rounded=0;shadow=0;labelBackgroundColor=none;strokeWidth=1;" vertex="1" parent="xkGVcfHma229tYRSmBUg-2">
          <mxGeometry x="30" y="980" width="100" height="60" as="geometry" />
        </mxCell>
        <mxCell id="xkGVcfHma229tYRSmBUg-9" style="edgeStyle=orthogonalEdgeStyle;rounded=0;orthogonalLoop=1;jettySize=auto;html=1;exitX=0.5;exitY=1;exitDx=0;exitDy=0;entryX=0.5;entryY=0;entryDx=0;entryDy=0;" edge="1" parent="xkGVcfHma229tYRSmBUg-2" source="xkGVcfHma229tYRSmBUg-10" target="xkGVcfHma229tYRSmBUg-122">
          <mxGeometry relative="1" as="geometry">
            <mxPoint x="70" y="260" as="targetPoint" />
          </mxGeometry>
        </mxCell>
        <mxCell id="xkGVcfHma229tYRSmBUg-10" value="&lt;span style=&quot;font-size: 12px;&quot;&gt;查询操作票当前状态&lt;/span&gt;" style="whiteSpace=wrap;html=1;fontSize=8;fontFamily=Verdana;rounded=0;shadow=0;labelBackgroundColor=none;strokeWidth=1;" vertex="1" parent="xkGVcfHma229tYRSmBUg-2">
          <mxGeometry x="30" y="160" width="100" height="60" as="geometry" />
        </mxCell>
        <mxCell id="xkGVcfHma229tYRSmBUg-122" value="&lt;span style=&quot;font-size: 12px;&quot;&gt;请求参数中票状态&lt;/span&gt;&lt;div&gt;&lt;span style=&quot;font-size: 12px;&quot;&gt;不为空且与当前票状态不一致&lt;/span&gt;&lt;/div&gt;" style="rhombus;whiteSpace=wrap;html=1;rounded=0;shadow=0;labelBackgroundColor=none;strokeWidth=1;fontFamily=Verdana;fontSize=8;align=center;" vertex="1" parent="xkGVcfHma229tYRSmBUg-2">
          <mxGeometry x="30" y="260" width="100" height="75" as="geometry" />
        </mxCell>
        <mxCell id="xkGVcfHma229tYRSmBUg-13" value="请求参数处理-1" style="swimlane;html=1;startSize=20;" vertex="1" parent="xkGVcfHma229tYRSmBUg-1">
          <mxGeometry x="160" y="20" width="160" height="1060" as="geometry" />
        </mxCell>
        <mxCell id="xkGVcfHma229tYRSmBUg-14" style="edgeStyle=orthogonalEdgeStyle;rounded=0;orthogonalLoop=1;jettySize=auto;html=1;exitX=0.5;exitY=1;exitDx=0;exitDy=0;" edge="1" parent="xkGVcfHma229tYRSmBUg-13" source="xkGVcfHma229tYRSmBUg-18" target="xkGVcfHma229tYRSmBUg-123">
          <mxGeometry relative="1" as="geometry">
            <mxPoint x="80" y="270" as="targetPoint" />
          </mxGeometry>
        </mxCell>
        <mxCell id="xkGVcfHma229tYRSmBUg-15" value="是" style="edgeLabel;html=1;align=center;verticalAlign=middle;resizable=0;points=[];" vertex="1" connectable="0" parent="xkGVcfHma229tYRSmBUg-14">
          <mxGeometry x="-0.4145" relative="1" as="geometry">
            <mxPoint y="-1" as="offset" />
          </mxGeometry>
        </mxCell>
        <mxCell id="xkGVcfHma229tYRSmBUg-128" style="edgeStyle=orthogonalEdgeStyle;rounded=0;orthogonalLoop=1;jettySize=auto;html=1;exitX=0;exitY=0.5;exitDx=0;exitDy=0;entryX=0.5;entryY=0;entryDx=0;entryDy=0;" edge="1" parent="xkGVcfHma229tYRSmBUg-13" source="xkGVcfHma229tYRSmBUg-18" target="xkGVcfHma229tYRSmBUg-124">
          <mxGeometry relative="1" as="geometry">
            <Array as="points">
              <mxPoint x="10" y="190" />
              <mxPoint x="10" y="350" />
              <mxPoint x="80" y="350" />
            </Array>
          </mxGeometry>
        </mxCell>
        <mxCell id="xkGVcfHma229tYRSmBUg-129" value="否" style="edgeLabel;html=1;align=center;verticalAlign=middle;resizable=0;points=[];" vertex="1" connectable="0" parent="xkGVcfHma229tYRSmBUg-128">
          <mxGeometry x="-0.9141" y="-1" relative="1" as="geometry">
            <mxPoint as="offset" />
          </mxGeometry>
        </mxCell>
        <mxCell id="xkGVcfHma229tYRSmBUg-18" value="&lt;span style=&quot;font-size: 12px;&quot;&gt;请求参数中&lt;/span&gt;&lt;div&gt;&lt;span style=&quot;font-size: 12px;&quot;&gt;操作票操作项集合不为空&lt;/span&gt;&lt;/div&gt;" style="rhombus;whiteSpace=wrap;html=1;rounded=0;shadow=0;labelBackgroundColor=none;strokeWidth=1;fontFamily=Verdana;fontSize=8;align=center;" vertex="1" parent="xkGVcfHma229tYRSmBUg-13">
          <mxGeometry x="30" y="152.5" width="100" height="75" as="geometry" />
        </mxCell>
        <mxCell id="xkGVcfHma229tYRSmBUg-125" style="edgeStyle=orthogonalEdgeStyle;rounded=0;orthogonalLoop=1;jettySize=auto;html=1;exitX=0.5;exitY=1;exitDx=0;exitDy=0;" edge="1" parent="xkGVcfHma229tYRSmBUg-13" source="xkGVcfHma229tYRSmBUg-123" target="xkGVcfHma229tYRSmBUg-124">
          <mxGeometry relative="1" as="geometry" />
        </mxCell>
        <mxCell id="xkGVcfHma229tYRSmBUg-123" value="&lt;span style=&quot;font-size: 12px;&quot;&gt;设置操作票操作项序号&lt;/span&gt;&lt;div&gt;&lt;span style=&quot;font-size: 12px;&quot;&gt;设置操作票总步骤数&lt;/span&gt;&lt;/div&gt;" style="whiteSpace=wrap;html=1;fontSize=8;fontFamily=Verdana;rounded=0;shadow=0;labelBackgroundColor=none;strokeWidth=1;" vertex="1" parent="xkGVcfHma229tYRSmBUg-13">
          <mxGeometry x="30" y="270" width="100" height="60" as="geometry" />
        </mxCell>
        <mxCell id="xkGVcfHma229tYRSmBUg-127" style="edgeStyle=orthogonalEdgeStyle;rounded=0;orthogonalLoop=1;jettySize=auto;html=1;exitX=0.5;exitY=1;exitDx=0;exitDy=0;entryX=0.5;entryY=0;entryDx=0;entryDy=0;" edge="1" parent="xkGVcfHma229tYRSmBUg-13" source="xkGVcfHma229tYRSmBUg-124" target="xkGVcfHma229tYRSmBUg-126">
          <mxGeometry relative="1" as="geometry" />
        </mxCell>
        <mxCell id="xkGVcfHma229tYRSmBUg-130" value="是" style="edgeLabel;html=1;align=center;verticalAlign=middle;resizable=0;points=[];" vertex="1" connectable="0" parent="xkGVcfHma229tYRSmBUg-127">
          <mxGeometry x="-0.1111" y="1" relative="1" as="geometry">
            <mxPoint as="offset" />
          </mxGeometry>
        </mxCell>
        <mxCell id="xkGVcfHma229tYRSmBUg-131" style="edgeStyle=orthogonalEdgeStyle;rounded=0;orthogonalLoop=1;jettySize=auto;html=1;exitX=0;exitY=0.5;exitDx=0;exitDy=0;entryX=0.5;entryY=0;entryDx=0;entryDy=0;" edge="1" parent="xkGVcfHma229tYRSmBUg-13" source="xkGVcfHma229tYRSmBUg-124" target="xkGVcfHma229tYRSmBUg-132">
          <mxGeometry relative="1" as="geometry">
            <mxPoint x="10" y="580" as="targetPoint" />
            <Array as="points">
              <mxPoint x="10" y="408" />
              <mxPoint x="10" y="570" />
              <mxPoint x="80" y="570" />
            </Array>
          </mxGeometry>
        </mxCell>
        <mxCell id="xkGVcfHma229tYRSmBUg-134" value="否" style="edgeLabel;html=1;align=center;verticalAlign=middle;resizable=0;points=[];" vertex="1" connectable="0" parent="xkGVcfHma229tYRSmBUg-131">
          <mxGeometry x="-0.9254" y="-2" relative="1" as="geometry">
            <mxPoint as="offset" />
          </mxGeometry>
        </mxCell>
        <mxCell id="xkGVcfHma229tYRSmBUg-124" value="&lt;span style=&quot;font-size: 12px;&quot;&gt;请求参数中&lt;/span&gt;&lt;div&gt;&lt;span style=&quot;font-size: 12px;&quot;&gt;图形化操作项集合不为空&lt;/span&gt;&lt;/div&gt;" style="rhombus;whiteSpace=wrap;html=1;rounded=0;shadow=0;labelBackgroundColor=none;strokeWidth=1;fontFamily=Verdana;fontSize=8;align=center;" vertex="1" parent="xkGVcfHma229tYRSmBUg-13">
          <mxGeometry x="30" y="370" width="100" height="75" as="geometry" />
        </mxCell>
        <mxCell id="xkGVcfHma229tYRSmBUg-133" style="edgeStyle=orthogonalEdgeStyle;rounded=0;orthogonalLoop=1;jettySize=auto;html=1;exitX=0.5;exitY=1;exitDx=0;exitDy=0;entryX=0.5;entryY=0;entryDx=0;entryDy=0;" edge="1" parent="xkGVcfHma229tYRSmBUg-13" source="xkGVcfHma229tYRSmBUg-126" target="xkGVcfHma229tYRSmBUg-132">
          <mxGeometry relative="1" as="geometry" />
        </mxCell>
        <mxCell id="xkGVcfHma229tYRSmBUg-126" value="&lt;span style=&quot;font-size: 12px;&quot;&gt;设置操作票操作项序号&lt;/span&gt;" style="whiteSpace=wrap;html=1;fontSize=8;fontFamily=Verdana;rounded=0;shadow=0;labelBackgroundColor=none;strokeWidth=1;" vertex="1" parent="xkGVcfHma229tYRSmBUg-13">
          <mxGeometry x="30" y="490" width="100" height="60" as="geometry" />
        </mxCell>
        <mxCell id="xkGVcfHma229tYRSmBUg-136" style="edgeStyle=orthogonalEdgeStyle;rounded=0;orthogonalLoop=1;jettySize=auto;html=1;exitX=0.5;exitY=1;exitDx=0;exitDy=0;entryX=0.5;entryY=0;entryDx=0;entryDy=0;" edge="1" parent="xkGVcfHma229tYRSmBUg-13" source="xkGVcfHma229tYRSmBUg-132" target="xkGVcfHma229tYRSmBUg-135">
          <mxGeometry relative="1" as="geometry" />
        </mxCell>
        <mxCell id="xkGVcfHma229tYRSmBUg-137" value="是" style="edgeLabel;html=1;align=center;verticalAlign=middle;resizable=0;points=[];" vertex="1" connectable="0" parent="xkGVcfHma229tYRSmBUg-136">
          <mxGeometry x="-0.4074" y="1" relative="1" as="geometry">
            <mxPoint as="offset" />
          </mxGeometry>
        </mxCell>
        <mxCell id="xkGVcfHma229tYRSmBUg-132" value="&lt;span style=&quot;font-size: 12px;&quot;&gt;请求参数中&lt;/span&gt;&lt;div&gt;&lt;span style=&quot;font-size: 12px;&quot;&gt;危险点及预防措施集合不为空&lt;/span&gt;&lt;/div&gt;" style="rhombus;whiteSpace=wrap;html=1;rounded=0;shadow=0;labelBackgroundColor=none;strokeWidth=1;fontFamily=Verdana;fontSize=8;align=center;" vertex="1" parent="xkGVcfHma229tYRSmBUg-13">
          <mxGeometry x="30" y="590" width="100" height="75" as="geometry" />
        </mxCell>
        <mxCell id="xkGVcfHma229tYRSmBUg-139" style="edgeStyle=orthogonalEdgeStyle;rounded=0;orthogonalLoop=1;jettySize=auto;html=1;exitX=0.5;exitY=1;exitDx=0;exitDy=0;entryX=0.5;entryY=0;entryDx=0;entryDy=0;" edge="1" parent="xkGVcfHma229tYRSmBUg-13" source="xkGVcfHma229tYRSmBUg-135" target="xkGVcfHma229tYRSmBUg-138">
          <mxGeometry relative="1" as="geometry" />
        </mxCell>
        <mxCell id="xkGVcfHma229tYRSmBUg-135" value="&lt;span style=&quot;font-size: 12px;&quot;&gt;设置危险点与预防措施的序号&lt;/span&gt;" style="whiteSpace=wrap;html=1;fontSize=8;fontFamily=Verdana;rounded=0;shadow=0;labelBackgroundColor=none;strokeWidth=1;" vertex="1" parent="xkGVcfHma229tYRSmBUg-13">
          <mxGeometry x="30" y="710" width="100" height="60" as="geometry" />
        </mxCell>
        <mxCell id="xkGVcfHma229tYRSmBUg-138" value="&lt;span style=&quot;font-size: 12px;&quot;&gt;设置操作票实际操作步数&lt;/span&gt;" style="whiteSpace=wrap;html=1;fontSize=8;fontFamily=Verdana;rounded=0;shadow=0;labelBackgroundColor=none;strokeWidth=1;" vertex="1" parent="xkGVcfHma229tYRSmBUg-13">
          <mxGeometry x="30" y="810" width="100" height="60" as="geometry" />
        </mxCell>
        <mxCell id="xkGVcfHma229tYRSmBUg-29" value="请求参数处理-2" style="swimlane;html=1;startSize=20;" vertex="1" parent="xkGVcfHma229tYRSmBUg-1">
          <mxGeometry x="320" y="20" width="160" height="1060" as="geometry" />
        </mxCell>
        <mxCell id="xkGVcfHma229tYRSmBUg-143" style="edgeStyle=orthogonalEdgeStyle;rounded=0;orthogonalLoop=1;jettySize=auto;html=1;exitX=0.5;exitY=1;exitDx=0;exitDy=0;entryX=0.5;entryY=0;entryDx=0;entryDy=0;" edge="1" parent="xkGVcfHma229tYRSmBUg-29" source="xkGVcfHma229tYRSmBUg-140" target="xkGVcfHma229tYRSmBUg-142">
          <mxGeometry relative="1" as="geometry" />
        </mxCell>
        <mxCell id="xkGVcfHma229tYRSmBUg-140" value="&lt;span style=&quot;font-size: 12px;&quot;&gt;查询当前登录人信息&lt;/span&gt;&lt;div&gt;&lt;span style=&quot;font-size: 12px;&quot;&gt;设置操作票表修改人信息&lt;/span&gt;&lt;/div&gt;" style="whiteSpace=wrap;html=1;fontSize=8;fontFamily=Verdana;rounded=0;shadow=0;labelBackgroundColor=none;strokeWidth=1;" vertex="1" parent="xkGVcfHma229tYRSmBUg-29">
          <mxGeometry x="30" y="160" width="100" height="60" as="geometry" />
        </mxCell>
        <mxCell id="xkGVcfHma229tYRSmBUg-142" value="&lt;span style=&quot;font-size: 12px;&quot;&gt;设置操作票的开票来源&lt;/span&gt;" style="whiteSpace=wrap;html=1;fontSize=8;fontFamily=Verdana;rounded=0;shadow=0;labelBackgroundColor=none;strokeWidth=1;" vertex="1" parent="xkGVcfHma229tYRSmBUg-29">
          <mxGeometry x="30" y="260" width="100" height="60" as="geometry" />
        </mxCell>
        <mxCell id="xkGVcfHma229tYRSmBUg-62" value="修改操作票相关数据" style="swimlane;html=1;startSize=20;" vertex="1" parent="xkGVcfHma229tYRSmBUg-1">
          <mxGeometry x="480" y="20" width="160" height="1060" as="geometry" />
        </mxCell>
        <mxCell id="xkGVcfHma229tYRSmBUg-63" value="" style="edgeStyle=orthogonalEdgeStyle;rounded=0;orthogonalLoop=1;jettySize=auto;html=1;entryX=0.5;entryY=0;entryDx=0;entryDy=0;" edge="1" parent="xkGVcfHma229tYRSmBUg-62" source="xkGVcfHma229tYRSmBUg-64">
          <mxGeometry relative="1" as="geometry">
            <mxPoint x="80" y="260" as="targetPoint" />
          </mxGeometry>
        </mxCell>
        <mxCell id="xkGVcfHma229tYRSmBUg-64" value="&lt;span style=&quot;font-size: 12px;&quot;&gt;更新&lt;/span&gt;&lt;div&gt;&lt;span style=&quot;font-size: 12px;&quot;&gt;操作票主记录&lt;/span&gt;&lt;/div&gt;" style="whiteSpace=wrap;html=1;fontSize=8;fontFamily=Verdana;rounded=0;shadow=0;labelBackgroundColor=none;strokeWidth=1;" vertex="1" parent="xkGVcfHma229tYRSmBUg-62">
          <mxGeometry x="30" y="160" width="100" height="60" as="geometry" />
        </mxCell>
        <mxCell id="xkGVcfHma229tYRSmBUg-147" style="edgeStyle=orthogonalEdgeStyle;rounded=0;orthogonalLoop=1;jettySize=auto;html=1;exitX=0.5;exitY=1;exitDx=0;exitDy=0;entryX=0.5;entryY=0;entryDx=0;entryDy=0;" edge="1" parent="xkGVcfHma229tYRSmBUg-62" source="xkGVcfHma229tYRSmBUg-145" target="xkGVcfHma229tYRSmBUg-146">
          <mxGeometry relative="1" as="geometry" />
        </mxCell>
        <mxCell id="xkGVcfHma229tYRSmBUg-145" value="&lt;span style=&quot;font-size: 12px;&quot;&gt;删除旧的非图形化操作项&lt;/span&gt;&lt;div&gt;&lt;span style=&quot;font-size: 12px;&quot;&gt;插入新的&lt;/span&gt;&lt;span style=&quot;font-size: 12px; background-color: transparent; color: light-dark(rgb(0, 0, 0), rgb(255, 255, 255));&quot;&gt;非图形化操作项&lt;/span&gt;&lt;/div&gt;" style="whiteSpace=wrap;html=1;fontSize=8;fontFamily=Verdana;rounded=0;shadow=0;labelBackgroundColor=none;strokeWidth=1;" vertex="1" parent="xkGVcfHma229tYRSmBUg-62">
          <mxGeometry x="30" y="260" width="100" height="60" as="geometry" />
        </mxCell>
        <mxCell id="xkGVcfHma229tYRSmBUg-149" style="edgeStyle=orthogonalEdgeStyle;rounded=0;orthogonalLoop=1;jettySize=auto;html=1;exitX=0.5;exitY=1;exitDx=0;exitDy=0;entryX=0.5;entryY=0;entryDx=0;entryDy=0;" edge="1" parent="xkGVcfHma229tYRSmBUg-62" source="xkGVcfHma229tYRSmBUg-146" target="xkGVcfHma229tYRSmBUg-148">
          <mxGeometry relative="1" as="geometry" />
        </mxCell>
        <mxCell id="xkGVcfHma229tYRSmBUg-146" value="&lt;span style=&quot;font-size: 12px;&quot;&gt;删除旧的图形化操作项&lt;/span&gt;&lt;div&gt;&lt;span style=&quot;font-size: 12px;&quot;&gt;插入新的图形化操作项&lt;/span&gt;&lt;/div&gt;" style="whiteSpace=wrap;html=1;fontSize=8;fontFamily=Verdana;rounded=0;shadow=0;labelBackgroundColor=none;strokeWidth=1;" vertex="1" parent="xkGVcfHma229tYRSmBUg-62">
          <mxGeometry x="30" y="360" width="100" height="60" as="geometry" />
        </mxCell>
        <mxCell id="xkGVcfHma229tYRSmBUg-152" style="edgeStyle=orthogonalEdgeStyle;rounded=0;orthogonalLoop=1;jettySize=auto;html=1;exitX=0.5;exitY=1;exitDx=0;exitDy=0;" edge="1" parent="xkGVcfHma229tYRSmBUg-62" source="xkGVcfHma229tYRSmBUg-148" target="xkGVcfHma229tYRSmBUg-151">
          <mxGeometry relative="1" as="geometry" />
        </mxCell>
        <mxCell id="xkGVcfHma229tYRSmBUg-148" value="&lt;span style=&quot;font-size: 12px;&quot;&gt;删除已有的风险措施&lt;/span&gt;&lt;div&gt;&lt;span style=&quot;font-size: 12px;&quot;&gt;插入新的风险措施&lt;/span&gt;&lt;/div&gt;" style="whiteSpace=wrap;html=1;fontSize=8;fontFamily=Verdana;rounded=0;shadow=0;labelBackgroundColor=none;strokeWidth=1;" vertex="1" parent="xkGVcfHma229tYRSmBUg-62">
          <mxGeometry x="30" y="464.5" width="100" height="60" as="geometry" />
        </mxCell>
        <mxCell id="xkGVcfHma229tYRSmBUg-151" value="&lt;span style=&quot;font-size: 12px;&quot;&gt;成功返回&lt;/span&gt;" style="whiteSpace=wrap;html=1;fontSize=8;fontFamily=Verdana;rounded=0;shadow=0;labelBackgroundColor=none;strokeWidth=1;" vertex="1" parent="xkGVcfHma229tYRSmBUg-62">
          <mxGeometry x="30" y="980" width="100" height="60" as="geometry" />
        </mxCell>
        <mxCell id="xkGVcfHma229tYRSmBUg-105" style="edgeStyle=orthogonalEdgeStyle;rounded=0;orthogonalLoop=1;jettySize=auto;html=1;exitX=1;exitY=0.5;exitDx=0;exitDy=0;entryX=0.5;entryY=0;entryDx=0;entryDy=0;" edge="1" parent="xkGVcfHma229tYRSmBUg-1" source="xkGVcfHma229tYRSmBUg-122" target="xkGVcfHma229tYRSmBUg-18">
          <mxGeometry relative="1" as="geometry">
            <Array as="points">
              <mxPoint x="150" y="318" />
              <mxPoint x="150" y="140" />
              <mxPoint x="240" y="140" />
            </Array>
          </mxGeometry>
        </mxCell>
        <mxCell id="xkGVcfHma229tYRSmBUg-106" value="否" style="edgeLabel;html=1;align=center;verticalAlign=middle;resizable=0;points=[];" vertex="1" connectable="0" parent="xkGVcfHma229tYRSmBUg-105">
          <mxGeometry x="-0.9253" relative="1" as="geometry">
            <mxPoint as="offset" />
          </mxGeometry>
        </mxCell>
        <mxCell id="xkGVcfHma229tYRSmBUg-141" style="edgeStyle=orthogonalEdgeStyle;rounded=0;orthogonalLoop=1;jettySize=auto;html=1;exitX=0.5;exitY=1;exitDx=0;exitDy=0;entryX=0.5;entryY=0;entryDx=0;entryDy=0;" edge="1" parent="xkGVcfHma229tYRSmBUg-1" source="xkGVcfHma229tYRSmBUg-138" target="xkGVcfHma229tYRSmBUg-140">
          <mxGeometry relative="1" as="geometry">
            <Array as="points">
              <mxPoint x="240" y="930" />
              <mxPoint x="310" y="930" />
              <mxPoint x="310" y="140" />
              <mxPoint x="400" y="140" />
            </Array>
          </mxGeometry>
        </mxCell>
        <mxCell id="xkGVcfHma229tYRSmBUg-144" style="edgeStyle=orthogonalEdgeStyle;rounded=0;orthogonalLoop=1;jettySize=auto;html=1;exitX=0.5;exitY=1;exitDx=0;exitDy=0;entryX=0.5;entryY=0;entryDx=0;entryDy=0;" edge="1" parent="xkGVcfHma229tYRSmBUg-1" source="xkGVcfHma229tYRSmBUg-142" target="xkGVcfHma229tYRSmBUg-64">
          <mxGeometry relative="1" as="geometry">
            <Array as="points">
              <mxPoint x="400" y="360" />
              <mxPoint x="470" y="360" />
              <mxPoint x="470" y="140" />
              <mxPoint x="560" y="140" />
            </Array>
          </mxGeometry>
        </mxCell>
      </root>
    </mxGraphModel>
  </diagram>
</mxfile>
